<svg width="26" height="26" viewBox="0 0 26 26" fill="none" xmlns="http://www.w3.org/2000/svg">
<path fill-rule="evenodd" clip-rule="evenodd" d="M25.6467 13.268C25.6467 20.185 20.0393 25.7924 13.1223 25.7924C6.20526 25.7924 0.5979 20.185 0.5979 13.268C0.5979 6.351 6.20526 0.743652 13.1223 0.743652C20.0393 0.743652 25.6467 6.351 25.6467 13.268ZM17.1485 4.8171C17.0288 4.8171 16.9106 4.82261 16.7933 4.83113L14.8145 14.1347C15.5098 14.5075 16.3044 14.7189 17.1485 14.7189C19.8829 14.7189 22.0997 12.5021 22.0997 9.76774C22.0997 7.03342 19.8829 4.8166 17.1485 4.8166V4.8171ZM14.8145 4.81708H14.5716C11.0863 4.81708 8.09444 5.50442 7.11303 9.76821L4.77598 21.1238C6.79653 21.1191 10.7635 21.1232 11.2963 21.1238H11.2982L11.3558 21.1238L14.8145 4.81708Z" fill="white"/>
</svg>
